<?xml version="1.0"?>
<svg xmlns="http://www.w3.org/2000/svg" xmlns:xlink="http://www.w3.org/1999/xlink" xmlns:svgjs="http://svgjs.com/svgjs" version="1.1" width="512" height="512" x="0" y="0" viewBox="0 0 512 512" style="enable-background:new 0 0 512 512" xml:space="preserve" class=""><g><g xmlns="http://www.w3.org/2000/svg"><path d="m512 437v75h-512v-75c0-29.18 17.13-55.93 43.64-68.15h424.72c26.51 12.22 43.64 38.97 43.64 68.15z" fill="#ff6c6c" data-original="#ff6c6c" style=""/><path d="m512 437v75h-256v-143.15h212.36c26.51 12.22 43.64 38.97 43.64 68.15z" fill="#e63950" data-original="#e63950" style=""/><path d="m406 75v122c0 8.28-6.72 15-15 15h-30l-15-12.56-15 12.56h-30l-15-19.76-15 19.76h-30l-15-17.84-15 17.84h-30l-15-19.04-15 19.04h-30c-8.28 0-15-6.72-15-15v-122z" fill="#fff5f5" data-original="#fff5f5" style="" class=""/><g fill="#e1ebf0"><path d="m406 75v122c0 8.28-6.72 15-15 15h-30l-15-12.56-15 12.56h-30l-15-19.76-15 19.76h-15v-137z" fill="#e1ebf0" data-original="#e1ebf0" style="" class=""/><path d="m151 75h30v137h-30z" fill="#e1ebf0" data-original="#e1ebf0" style="" class=""/><path d="m121 75v137h-30v-122c0-8.284 6.716-15 15-15z" fill="#e1ebf0" data-original="#e1ebf0" style="" class=""/><path d="m211 75h30v137h-30z" fill="#e1ebf0" data-original="#e1ebf0" style="" class=""/></g><path d="m271 75h30v137h-30z" fill="#b4d2d7" data-original="#b4d2d7" style="" class=""/><path d="m331 75h30v137h-30z" fill="#b4d2d7" data-original="#b4d2d7" style="" class=""/><path d="m391 75h30v137h-30z" fill="#b4d2d7" data-original="#b4d2d7" style="" class=""/><g><path d="m136 0c-24.81 0-45 20.19-45 45v45h421v-90z" fill="#c369ba" data-original="#65d6a9" style="" class=""/></g><path d="m256 0h256v90h-256z" fill="#b747ac" data-original="#26bfa6" style="" class=""/><path d="m32 272v94c0 30.93 25.07 56 56 56 30.932 0 56-25.079 56-56l15-94z" fill="#e1ebf0" data-original="#e1ebf0" style="" class=""/><path d="m480 272v94c0 30.932-25.079 56-56 56-30.93 0-56-25.07-56-56l-15-94z" fill="#b4d2d7" data-original="#b4d2d7" style="" class=""/><path d="m368 242v124c0 30.932-25.079 56-56 56-30.93 0-56-25.07-56-56 0 30.932-25.079 56-56 56-30.93 0-56-25.07-56-56v-124z" fill="#fff5f5" data-original="#fff5f5" style="" class=""/><path d="m368 242v124c0 30.932-25.079 56-56 56-30.93 0-56-25.07-56-56v-124z" fill="#e1ebf0" data-original="#e1ebf0" style="" class=""/></g></g></svg>
