<svg height="512pt" viewBox="0 0 512 512" width="512pt" xmlns="http://www.w3.org/2000/svg" xmlns:xlink="http://www.w3.org/1999/xlink"><linearGradient id="a" gradientUnits="userSpaceOnUse" x1="256" x2="256" y1="0" y2="512"><stop offset="0" stop-color="#2af598"/><stop offset="1" stop-color="#009efd"/></linearGradient><path d="m256 254c44.664062 0 81-36.335938 81-81s-36.335938-81-81-81-81 36.335938-81 81 36.335938 81 81 81zm0-122c22.605469 0 41 18.394531 41 41s-18.394531 41-41 41-41-18.394531-41-41 18.394531-41 41-41zm-12.625 294.820312 12.625 10.277344 12.625-10.277344c1.617188-1.316406 40.046875-32.753906 78.992188-77.703124 54-62.332032 81.382812-118.335938 81.382812-166.457032v-9.648437c0-95.398438-77.605469-173.011719-173-173.011719s-173 77.613281-173 173.011719v9.648437c0 48.121094 27.382812 104.125 81.382812 166.457032 38.941407 44.949218 77.375 76.386718 78.992188 77.703124zm-120.375-253.808593c0-73.34375 59.664062-133.011719 133-133.011719s133 59.667969 133 133.011719v9.648437c0 37.574219-24.632812 85.921875-71.230469 139.820313-23.695312 27.40625-47.667969 49.875-61.773437 62.429687-14.003906-12.457031-37.75-34.707031-61.378906-61.984375-46.851563-54.078125-71.617188-102.582031-71.617188-140.265625zm389 265.988281c0 15.132812-9.8125 28.019531-29.167969 38.292969-13.460937 7.148437-32.15625 13.4375-55.570312 18.695312-45.972657 10.324219-106.792969 16.011719-171.261719 16.011719s-125.289062-5.6875-171.261719-16.007812c-23.414062-5.257813-42.109375-11.550782-55.570312-18.695313-19.355469-10.277344-29.167969-23.164063-29.167969-38.296875s9.8125-28.019531 29.167969-38.292969c13.460937-7.148437 32.15625-13.4375 55.570312-18.695312 14.605469-3.28125 30.722657-6.085938 47.964844-8.394531.488281.566406.957031 1.128906 1.449219 1.695312 10.996094 12.691406 21.984375 24.386719 32.214844 34.742188-22.152344 2.09375-42.839844 4.960937-61.207032 8.542968-37.082031 7.230469-55.121094 15.511719-62.285156 20.402344 7.164062 4.890625 25.199219 13.171875 62.285156 20.402344 41.65625 8.125 95.226563 12.597656 150.839844 12.597656s109.183594-4.472656 150.839844-12.597656c37.082031-7.230469 55.121094-15.511719 62.285156-20.402344-7.164062-4.890625-25.199219-13.171875-62.285156-20.402344-18.367188-3.582031-39.050782-6.453125-61.203125-8.542968 10.226562-10.355469 21.214843-22.050782 32.210937-34.742188.492188-.566406.964844-1.132812 1.449219-1.699219 17.242187 2.3125 33.359375 5.117188 47.964844 8.394531 23.414062 5.257813 42.109375 11.550782 55.570312 18.695313 19.355469 10.277344 29.167969 23.164063 29.167969 38.296875zm0 0" fill="url(#a)"/></svg>