<svg id="bold" height="512" viewBox="0 0 24 24" width="512" xmlns="http://www.w3.org/2000/svg"><path d="m14.578 18c-.839 0-1.564-.564-1.725-1.342l-.561-3.182c-.014-.063-.132-.154-.293-.154s-.279.091-.297.176l-.553 3.138c-.163.8-.888 1.364-1.727 1.364-.896 0-1.647-.635-1.747-1.476l-.216-1.827c-.013-.094-.111-.615-.63-3.013-.218-1.008-.329-2.043-.329-3.077 0-1.437 1.166-2.607 2.599-2.607.479 0 .951.131 1.363.379.949.572 2.127.572 3.074.001.414-.249.886-.38 1.365-.38 1.433 0 2.599 1.17 2.599 2.607 0 1.034-.111 2.069-.329 3.078-.519 2.396-.617 2.917-.631 3.015l-.215 1.824c-.099.841-.85 1.476-1.747 1.476zm1.002-1.564h.01z"/><path d="m12 24c-.088 0-.176-.012-.262-.035-.098-.027-9.738-2.754-9.738-12.04v-7.501c0-.415.256-.787.645-.935l9-3.424c.229-.087.482-.087.711 0l9 3.424c.388.148.644.52.644.935v7.501c0 9.287-9.64 12.014-9.738 12.04-.086.023-.174.035-.262.035zm-8-18.887v6.812c0 7.047 6.564 9.564 8 10.03 1.436-.466 8-2.983 8-10.03v-6.812l-8-3.043z"/></svg>