<?xml version="1.0"?>
<svg xmlns="http://www.w3.org/2000/svg" xmlns:xlink="http://www.w3.org/1999/xlink" xmlns:svgjs="http://svgjs.com/svgjs" version="1.1" width="512" height="512" x="0" y="0" viewBox="0 0 24 24" style="enable-background:new 0 0 512 512" xml:space="preserve" class=""><g><path xmlns="http://www.w3.org/2000/svg" d="m13.94 21c-1.075 0-1.999-.767-2.197-1.823l-.958-5.11c-.116-.619-.656-1.067-1.285-1.067s-1.169.448-1.285 1.066l-.958 5.11c-.198 1.057-1.123 1.824-2.197 1.824-1.146 0-2.101-.859-2.223-1.998l-.375-3.499c-.135-1.26-.4-2.511-.788-3.717l-.732-2.277c-.625-1.945-.942-3.966-.942-6.009 0-1.93 1.57-3.5 3.5-3.5 1.405 0 2.762.347 4.22 1.061 1.198.587 2.362.586 3.561 0 1.457-.714 2.814-1.061 4.146-1.061 2.003 0 3.573 1.57 3.573 3.5 0 2.043-.317 4.064-.942 6.009l-.732 2.277c-.388 1.207-.653 2.457-.788 3.717l-.375 3.499c-.121 1.139-1.077 1.998-2.223 1.998" fill="#f0f2f3" data-original="#eceff1" style="" class=""/><path xmlns="http://www.w3.org/2000/svg" d="m3.5 0c-1.93 0-3.5 1.57-3.5 3.5 0 2.043.317 4.064.942 6.009l.732 2.277c.388 1.207.653 2.457.788 3.717l.375 3.499c.122 1.139 1.077 1.998 2.223 1.998 1.075 0 1.999-.767 2.197-1.823l.958-5.11c.116-.619.656-1.067 1.285-1.067v-11.499s0 0-.001 0c-.59 0-1.181-.147-1.78-.44-1.457-.714-2.814-1.061-4.219-1.061" fill="#dee2e5" data-original="#cdd0d2" style="" class=""/><path xmlns="http://www.w3.org/2000/svg" d="m23.491 11.826-5.25-1.786c-.156-.054-.326-.054-.482 0l-5.25 1.786c-.305.103-.509.388-.509.71v4.018c0 4.904 5.474 7.288 5.707 7.387.188.08.397.08.586 0 .233-.1 5.707-2.483 5.707-7.387v-4.018c0-.322-.204-.607-.509-.71" fill="#4caf50" data-original="#4caf50" style="" class=""/><path xmlns="http://www.w3.org/2000/svg" d="m21.286 15.618-2.75 3.5c-.351.447-1.006.512-1.436.142l-1.75-1.5c-.42-.359-.469-.991-.108-1.41.359-.419.991-.467 1.409-.108l.958.821 2.105-2.679c.341-.434.969-.511 1.404-.168.434.339.51.968.168 1.402" fill="#ffffff" data-original="#ffffff" style="" class=""/><path xmlns="http://www.w3.org/2000/svg" d="m18 10c-.034 0-.068.002-.102.007-.047.007-.094.018-.139.033l-5.25 1.786c-.305.103-.509.388-.509.71v4.018c0 1.823.756 3.297 1.718 4.435 1.627 1.925 3.842 2.889 3.989 2.952.094.039.194.059.293.059v-4.532c-.082.021-.167.032-.252.032-.23 0-.461-.079-.649-.241l-1.75-1.5c-.42-.359-.469-.991-.108-1.41.198-.23.478-.349.76-.349.23 0 .462.079.65.24l.958.821.391-.498z" fill="#429846" data-original="#429846" style="" class=""/><path xmlns="http://www.w3.org/2000/svg" d="m16.001 16c-.282 0-.562.118-.76.349-.36.419-.311 1.051.108 1.41l1.75 1.5c.188.162.419.241.649.241.085 0 .169-.011.252-.032v-2.905l-.392.499-.958-.821c-.188-.162-.419-.241-.649-.241" fill="#dedede" data-original="#dedede" style=""/></g></svg>
